<svg width="115" height="119" viewBox="0 0 115 119" fill="none" xmlns="http://www.w3.org/2000/svg">
<g filter="url(#filter0_d_110_2)">
<rect x="4" y="0.0588226" width="107" height="110.941" rx="20" fill="black"/>
<rect x="6" y="2.05882" width="103" height="106.941" rx="18" stroke="#5B9279" stroke-width="4"/>
</g>
<path d="M48.8945 91.9531L46.1113 92.4414H36.1992C35.8086 92.4414 35.4017 92.3926 34.9785 92.2949C34.5879 92.1973 34.2135 92.0345 33.8555 91.8066C33.5299 91.6113 33.2533 91.3509 33.0254 91.0254C32.8301 90.6999 32.7324 90.3092 32.7324 89.8535C32.7324 89.3978 32.765 89.0072 32.8301 88.6816C32.9277 88.3887 33.2044 88.1771 33.6602 88.0469L37.127 87.3633C37.3548 87.2982 37.5664 87.2168 37.7617 87.1191C37.9245 87.054 38.0872 86.9889 38.25 86.9238C38.4453 86.8587 38.5918 86.7936 38.6895 86.7285C38.8197 86.7285 38.9661 86.6797 39.1289 86.582C39.194 86.5495 39.2591 86.5007 39.3242 86.4355C39.487 86.2402 39.6823 85.9147 39.9102 85.459C40.138 85.0358 40.252 84.7266 40.252 84.5312C40.252 84.4661 40.2682 84.2383 40.3008 83.8477C40.3333 83.4896 40.3659 83.0664 40.3984 82.5781C40.4635 82.1224 40.5124 81.6667 40.5449 81.2109C40.5775 80.7552 40.5938 80.3971 40.5938 80.1367V77.5C40.5938 76.5234 40.5775 75.5469 40.5449 74.5703C40.5124 73.6263 40.4147 72.7148 40.252 71.8359L39.959 70.9082V69.0527L40.252 68.0273L40.2031 66.0254C40.2031 65.6673 40.2194 65.3255 40.252 65C40.3171 64.707 40.431 64.4303 40.5938 64.1699C40.4635 62.4121 40.3659 60.7031 40.3008 59.043C40.2682 57.3503 40.252 55.6413 40.252 53.916V52.3535L40.3496 50.9863C40.3496 50.9538 40.3496 50.9049 40.3496 50.8398C40.3496 50.7747 40.3333 50.6283 40.3008 50.4004C40.3008 50.1725 40.2845 49.8145 40.252 49.3262C40.2194 48.8379 40.1706 48.1706 40.1055 47.3242C40.1055 47.0638 40.1055 46.8197 40.1055 46.5918C40.1055 46.3639 40.138 46.1035 40.2031 45.8105L40.252 43.9062C40.0892 42.9622 39.9753 42.0182 39.9102 41.0742C39.8776 40.1302 39.8613 39.1536 39.8613 38.1445C39.8613 37.2005 39.8776 36.2565 39.9102 35.3125C39.9753 34.3359 40.0892 33.3268 40.252 32.2852L39.959 31.7969C39.8613 31.7318 39.7148 31.6178 39.5195 31.4551C39.3568 31.2598 39.194 31.0807 39.0312 30.918C38.8359 30.7227 38.6081 30.5111 38.3477 30.2832C38.25 30.1855 38.0872 30.0553 37.8594 29.8926C37.6315 29.7298 37.3711 29.5671 37.0781 29.4043C36.7852 29.2415 36.4922 29.0951 36.1992 28.9648C35.9388 28.8346 35.7435 28.737 35.6133 28.6719C35.418 28.6068 35.2552 28.5742 35.125 28.5742C35.0273 28.5417 34.946 28.4928 34.8809 28.4277C34.36 28.0371 34.0996 27.5814 34.0996 27.0605C34.0996 26.9954 34.0996 26.8815 34.0996 26.7188C34.0996 26.5234 34.1322 26.3932 34.1973 26.3281C34.2624 26.2305 34.3112 26.1491 34.3438 26.084C34.3763 25.9863 34.474 25.8887 34.6367 25.791L37.127 24.2773C37.2246 24.2448 37.3385 24.2122 37.4688 24.1797C37.5664 24.1471 37.6641 24.1146 37.7617 24.082C37.8594 24.0495 37.9408 24.0332 38.0059 24.0332L40.252 23.3496L41.5215 22.2754C41.9772 21.722 42.5469 21.25 43.2305 20.8594C43.9466 20.4362 44.6139 20.2246 45.2324 20.2246C45.9486 20.2246 46.502 20.3548 46.8926 20.6152C47.3158 20.8431 47.6413 21.1523 47.8691 21.543C48.097 21.9336 48.2435 22.3405 48.3086 22.7637C48.4062 23.1868 48.4876 23.5938 48.5527 23.9844C48.6504 24.375 48.7643 24.7005 48.8945 24.9609C49.0573 25.1888 49.2852 25.3027 49.5781 25.3027L53.9727 23.3496L55.1445 22.5195C55.6979 22.1289 56.2513 21.8359 56.8047 21.6406C57.3906 21.4453 57.9766 21.2988 58.5625 21.2012C59.1484 21.1035 59.7344 21.0547 60.3203 21.0547C60.9388 21.0221 61.5736 20.9733 62.2246 20.9082L63.4941 20.4688C64.1777 20.4688 64.7474 20.5176 65.2031 20.6152C65.6914 20.6803 66.1309 20.7943 66.5215 20.957C66.9121 21.1198 67.2865 21.3151 67.6445 21.543C68.0026 21.7383 68.4258 21.9824 68.9141 22.2754C69.793 22.6335 70.7044 22.959 71.6484 23.252C72.625 23.5124 73.5365 23.9355 74.3828 24.5215L79.0215 29.4531L79.3145 30.0391C79.3796 30.2018 79.4447 30.3483 79.5098 30.4785C79.6074 30.6087 79.6562 30.7064 79.6562 30.7715L80.9258 34.5801L81.9023 36.3867C81.9023 36.582 81.9512 36.7773 82.0488 36.9727L82.2441 37.3633V38.7305C82.2767 38.8932 82.3092 39.0397 82.3418 39.1699C82.3743 39.3001 82.4069 39.4141 82.4395 39.5117C82.472 39.6094 82.4883 39.6908 82.4883 39.7559L82.7812 40.7324C82.8138 41.1556 82.8464 41.5625 82.8789 41.9531C82.9115 42.3112 82.944 42.6693 82.9766 43.0273C83.0091 43.3529 83.0254 43.6458 83.0254 43.9062C82.472 45.957 81.8535 47.8939 81.1699 49.7168C80.4863 51.5397 79.6725 53.3464 78.7285 55.1367L77.5078 57.4805L77.166 58.4082C76.8405 58.8965 76.4336 59.3359 75.9453 59.7266C75.4896 60.0846 74.985 60.4264 74.4316 60.752C73.8783 61.0775 73.3249 61.3867 72.7715 61.6797C72.2181 61.9401 71.6973 62.2331 71.209 62.5586L69.6465 63.7305C69.0605 64.1536 68.4421 64.4141 67.791 64.5117C67.14 64.6094 66.4401 64.6582 65.6914 64.6582H63.4941C62.9733 64.6582 62.485 64.6582 62.0293 64.6582C61.6061 64.6582 61.1667 64.6582 60.7109 64.6582C60.2552 64.6257 59.7669 64.5931 59.2461 64.5605C58.7578 64.528 58.2044 64.4792 57.5859 64.4141L56.3164 64.1699L55.4863 64.4141H51.6777C51.0592 64.9023 50.5872 65.4395 50.2617 66.0254C49.9362 66.6439 49.6921 67.2949 49.5293 67.9785C49.3991 68.6621 49.3177 69.3783 49.2852 70.127C49.2526 70.8757 49.2363 71.6406 49.2363 72.4219V77.0117C49.2363 77.2721 49.2526 77.6465 49.2852 78.1348C49.3177 78.623 49.3503 79.1113 49.3828 79.5996C49.4479 80.1204 49.4967 80.5762 49.5293 80.9668C49.5618 81.3574 49.5781 81.5853 49.5781 81.6504L50.5059 83.9941V85.166L51.0918 87.6562C51.0918 87.8516 51.2057 87.9655 51.4336 87.998C51.6615 88.0306 51.8893 88.0469 52.1172 88.0469L53.6309 87.1191H53.9727L54.8027 87.4609H57.4883C57.8464 87.4609 58.1719 87.526 58.4648 87.6562C58.7904 87.7865 59.1484 88.0306 59.5391 88.3887C59.9622 88.6491 60.2389 88.877 60.3691 89.0723C60.4993 89.3001 60.5645 89.6419 60.5645 90.0977L60.6133 90.5859C60.6133 91.1068 60.3691 91.5625 59.8809 91.9531C59.3926 92.3763 58.8229 92.6204 58.1719 92.6855L53.7773 93.125C53.1263 92.8646 52.4427 92.6042 51.7266 92.3438C51.043 92.0833 50.4082 91.9531 49.8223 91.9531H48.8945ZM48.8945 51.9141C48.8945 52.3698 48.9108 52.7279 48.9434 52.9883C48.9759 53.2161 49.0736 53.5905 49.2363 54.1113C49.3014 54.3717 49.4154 54.681 49.5781 55.0391C49.7734 55.3971 49.9525 55.7389 50.1152 56.0645C50.3105 56.4225 50.5221 56.8132 50.75 57.2363C50.75 57.3014 50.8314 57.3991 50.9941 57.5293C51.1895 57.6595 51.401 57.7897 51.6289 57.9199C51.8568 58.0501 52.0684 58.1641 52.2637 58.2617C52.4915 58.3594 52.638 58.4082 52.7031 58.4082L54.2168 59.7754L56.3164 60.3613H58.8555L59.4414 60.6055C60.125 60.6055 60.7435 60.5404 61.2969 60.4102C61.8503 60.2474 62.3548 60.0684 62.8105 59.873C63.2988 59.6452 63.7546 59.401 64.1777 59.1406C64.6009 58.8802 65.0241 58.6361 65.4473 58.4082C65.8704 58.0501 66.2936 57.8223 66.7168 57.7246C67.1725 57.5944 67.6283 57.3177 68.084 56.8945C68.1816 56.8294 68.2793 56.7318 68.377 56.6016C68.5072 56.4714 68.6374 56.3411 68.7676 56.2109L69.1582 55.7227L69.4023 52.8418L70.6719 49.7168L70.916 48.2031V47.0312L71.5508 45.0781V43.6133C71.2253 42.4414 71.0299 41.4486 70.9648 40.6348C70.8997 39.7884 70.8021 38.9909 70.6719 38.2422C70.6068 38.0143 70.5254 37.8353 70.4277 37.7051C70.3626 37.5749 70.2812 37.4447 70.1836 37.3145C70.0859 37.1842 69.9883 37.0378 69.8906 36.875C69.8255 36.6797 69.7441 36.4193 69.6465 36.0938C69.5814 35.8659 69.5326 35.5892 69.5 35.2637C69.4674 34.9056 69.4186 34.5475 69.3535 34.1895C69.321 33.8314 69.2721 33.4896 69.207 33.1641C69.1419 32.8385 69.0443 32.5456 68.9141 32.2852C68.8164 32.2201 68.6211 32.0898 68.3281 31.8945C68.0677 31.6667 67.791 31.4225 67.498 31.1621C67.2376 30.8691 66.9772 30.6087 66.7168 30.3809C66.4889 30.1204 66.3424 29.9414 66.2773 29.8438L65.6914 28.6719C65.6914 28.6068 65.6263 28.5091 65.4961 28.3789C65.3659 28.2161 65.2194 28.0697 65.0566 27.9395C64.8939 27.7767 64.7148 27.6302 64.5195 27.5C64.3242 27.3372 64.1777 27.2233 64.0801 27.1582L63.4941 26.9141H61.0527L59.4414 26.377H58.6113C57.3418 26.377 56.3001 26.5072 55.4863 26.7676C54.6725 27.028 53.8262 27.321 52.9473 27.6465L51.3359 28.4277C50.9453 28.5579 50.6361 28.737 50.4082 28.9648C50.2129 29.1927 50.0501 29.4531 49.9199 29.7461C49.7897 30.0391 49.6758 30.3646 49.5781 30.7227C49.4805 31.0482 49.3665 31.4062 49.2363 31.7969L48.4062 33.8477C48.4062 34.2057 48.4388 34.5475 48.5039 34.873C48.6016 35.166 48.6504 35.4915 48.6504 35.8496L48.4062 38.2422C48.4062 39.3815 48.5039 40.4395 48.6992 41.416C48.9271 42.36 49.2201 43.3529 49.5781 44.3945V45.4199L49.2363 47.666V49.7168L48.8945 50.791V51.9141Z" fill="#8FCB9B"/>
<defs>
<filter id="filter0_d_110_2" x="0" y="0.0588226" width="115" height="118.941" filterUnits="userSpaceOnUse" color-interpolation-filters="sRGB">
<feFlood flood-opacity="0" result="BackgroundImageFix"/>
<feColorMatrix in="SourceAlpha" type="matrix" values="0 0 0 0 0 0 0 0 0 0 0 0 0 0 0 0 0 0 127 0" result="hardAlpha"/>
<feOffset dy="4"/>
<feGaussianBlur stdDeviation="2"/>
<feComposite in2="hardAlpha" operator="out"/>
<feColorMatrix type="matrix" values="0 0 0 0 0 0 0 0 0 0 0 0 0 0 0 0 0 0 0.25 0"/>
<feBlend mode="normal" in2="BackgroundImageFix" result="effect1_dropShadow_110_2"/>
<feBlend mode="normal" in="SourceGraphic" in2="effect1_dropShadow_110_2" result="shape"/>
</filter>
</defs>
</svg>
